<?xml version="1.0" encoding="utf-8"?>
<!-- Generator: Adobe Illustrator 28.3.0, SVG Export Plug-In . SVG Version: 6.00 Build 0)  -->
<svg version="1.1" id="Layer_1" xmlns="http://www.w3.org/2000/svg" xmlns:xlink="http://www.w3.org/1999/xlink" x="0px" y="0px"
	 viewBox="0 0 180 60" style="enable-background:new 0 0 180 60;" xml:space="preserve">
<style type="text/css">
	.st0{fill:#FCFCFC;}
</style>
<g>
	<path class="st0" d="M7.6,36.4v-25h7.9v25H7.6z M7.6,11.4h22.1v7.1H7.6V11.4z"/>
	<path class="st0" d="M58.1,26.2h-7.5v-3.8c0-0.9-0.1-1.6-0.4-2.3c-0.3-0.7-0.6-1.3-1.1-1.7c-0.4-0.4-1-0.8-1.7-1s-1.4-0.3-2.2-0.3
		c-0.8,0-1.5,0.1-2.1,0.4c-0.7,0.3-1.3,0.7-1.7,1.3c-0.5,0.6-0.9,1.3-1.1,2.1c-0.3,0.9-0.4,1.8-0.4,3c0,1.3,0.1,2.3,0.4,3.2
		c0.3,0.9,0.6,1.5,1.2,2.1c0.5,0.5,1.1,0.9,1.8,1.2c0.7,0.2,1.5,0.3,2.5,0.3c0.7,0,1.4-0.1,2-0.2c0.6-0.1,1.2-0.3,1.6-0.6
		c0.4-0.2,0.8-0.5,1-0.9c0.2-0.3,0.4-0.7,0.4-1.1h7.1c0,2.8-1,5-3.1,6.7c-2,1.7-5,2.6-9,2.6c-4.7,0-8.3-1.1-10.6-3.3
		c-2.3-2.2-3.5-5.5-3.5-9.9c0-4.3,1.1-7.5,3.4-9.8s5.5-3.4,9.8-3.4c4.7,0,8.1,1.2,10.2,3.6c2,2.4,3.1,6,3.1,10.9L58.1,26.2
		C58.1,26.2,58.1,26.2,58.1,26.2z M35,20.8h20.8v5.4H35V20.8z"/>
	<path class="st0" d="M61.5,36.4v-25h7.9v25H61.5z M79.7,36.4V23.6c0-0.9-0.1-1.7-0.2-2.4c-0.1-0.7-0.4-1.3-0.8-1.7
		c-0.4-0.5-0.9-0.9-1.5-1.1c-0.6-0.2-1.5-0.4-2.5-0.4c-1.7,0-3,0.5-4,1.5c-0.9,1-1.4,2.5-1.4,4.5v0.7h-2.2V24c0-1.9,0.2-3.7,0.6-5.4
		s1-3,1.8-4.2s1.9-2.1,3.1-2.7c1.3-0.6,2.8-1,4.5-1c1.6,0,3.1,0.2,4.5,0.6c1.3,0.4,2.4,1.1,3.2,2c0.9,0.9,1.5,2.2,2,3.7
		s0.6,3.5,0.6,5.9v13.6L79.7,36.4L79.7,36.4z"/>
	<path class="st0" d="M116.5,15.7C116.5,15.7,116.5,15.8,116.5,15.7L116.5,15.7L116.5,15.7z"/>
	<path class="st0" d="M117.1,19.3v17.1h-7.9V24.8l-9.4,11.6H89.6l14.5-17.9H92.6v-7.1H110c3,0,5.5,1.8,6.5,4.4l0,0
		c0.3,0.8,0.5,1.8,0.5,2.8C117.1,18.5,117.1,19,117.1,19.3z"/>
	<path class="st0" d="M139.7,11.5c1.5,0.5,2.8,1.3,3.8,2.3c1,1,1.8,2.1,2.4,3.4c0.5,1.3,0.8,2.7,0.8,4.2h-7.1c0-0.5-0.1-1-0.3-1.5
		c-0.2-0.4-0.6-0.8-1.1-1.1s-1-0.5-1.6-0.7s-1.3-0.2-2.1-0.2c-0.8,0-1.6,0.1-2.3,0.3c-0.7,0.2-1.3,0.5-1.8,1
		c-0.5,0.5-0.9,1.1-1.2,1.8s-0.4,1.7-0.4,2.8s0.1,2,0.4,2.8c0.3,0.8,0.7,1.4,1.3,1.9c0.6,0.5,1.3,0.8,2,1c0.8,0.2,1.6,0.3,2.5,0.3
		c0.8,0,1.5-0.1,2.1-0.2c0.6-0.1,1.1-0.4,1.5-0.7c0.4-0.3,0.7-0.6,0.9-1.1s0.3-0.9,0.3-1.5h7.1c0,1.5-0.2,2.9-0.8,4.2
		c-0.5,1.3-1.3,2.5-2.3,3.4s-2.3,1.7-3.9,2.3c-1.5,0.5-3.4,0.8-5.5,0.8c-4.6,0-8.1-1.1-10.4-3.3c-2.4-2.2-3.5-5.5-3.5-9.9
		s1.1-7.7,3.3-9.9c2.2-2.2,5.8-3.3,10.6-3.3C136.4,10.7,138.2,11,139.7,11.5z"/>
	<path class="st0" d="M175.4,26.2h-7.5v-3.8c0-0.9-0.1-1.6-0.4-2.3c-0.3-0.7-0.6-1.3-1.1-1.7c-0.4-0.4-1-0.8-1.7-1
		c-0.7-0.2-1.4-0.3-2.2-0.3c-0.8,0-1.5,0.1-2.1,0.4c-0.7,0.3-1.3,0.7-1.7,1.3c-0.5,0.6-0.9,1.3-1.1,2.1c-0.3,0.9-0.4,1.8-0.4,3
		c0,1.3,0.1,2.3,0.4,3.2c0.3,0.9,0.6,1.5,1.2,2.1c0.5,0.5,1.1,0.9,1.8,1.2s1.5,0.3,2.5,0.3c0.7,0,1.4-0.1,2-0.2s1.2-0.3,1.6-0.6
		s0.8-0.5,1-0.9c0.2-0.3,0.4-0.7,0.4-1.1h7.1c0,2.8-1,5-3.1,6.7c-2,1.7-5,2.6-9,2.6c-4.7,0-8.3-1.1-10.6-3.3
		c-2.3-2.2-3.5-5.5-3.5-9.9c0-4.3,1.1-7.5,3.4-9.8s5.5-3.4,9.8-3.4c4.7,0,8.1,1.2,10.2,3.6c2,2.4,3.1,6,3.1,10.9L175.4,26.2
		C175.5,26.2,175.4,26.2,175.4,26.2z M152.3,20.8h20.8v5.4h-20.8V20.8z"/>
</g>
<g>
	<path class="st0" d="M8,42.9h4.1v0.7H8.7v1.6h3v0.7h-3v1.6h3.4v0.7H8C8,48.2,8,42.9,8,42.9z"/>
	<path class="st0" d="M20.6,48.2h-0.9l-1.6-2l-1.7,2h-0.9l2.1-2.6L15.4,43h0.9l1.6,2l1.6-2h0.9l-2.1,2.6L20.6,48.2z"/>
	<path class="st0" d="M24.1,42.9h2.4c1.5,0,2.1,0.6,2.1,1.7s-0.6,1.7-2.1,1.7h-1.6v1.8h-0.7C24.1,48.2,24.1,42.9,24.1,42.9z
		 M26.5,45.8c1,0,1.4-0.3,1.4-1.1s-0.3-1.1-1.4-1.1h-1.6v2.1H26.5z"/>
	<path class="st0" d="M32.3,42.9h4.1v0.7h-3.3v1.6h3v0.7h-3v1.6h3.4v0.7h-4.1V42.9z"/>
	<path class="st0" d="M40.1,42.9h2.4c1.5,0,2.1,0.5,2.1,1.6c0,1-0.5,1.5-1.7,1.6l1.6,2.1h-0.9l-1.6-2h-1.1v2h-0.7
		C40.1,48.2,40.1,42.9,40.1,42.9z M42.5,45.5c1,0,1.4-0.3,1.4-0.9c0-0.6-0.3-0.9-1.4-0.9h-1.6v1.8H42.5z"/>
	<path class="st0" d="M49.8,43.6h-1.7v-0.7h4.2v0.7h-1.7v4.6h-0.7V43.6z"/>
	<path class="st0" d="M58.3,42.8c1.8,0,2.7,0.9,2.7,2.8c0,1.8-0.9,2.8-2.7,2.8c-1.8,0-2.7-0.9-2.7-2.8
		C55.6,43.8,56.5,42.8,58.3,42.8z M58.3,47.6c1.3,0,1.9-0.7,1.9-2s-0.6-2-1.9-2c-1.3,0-1.9,0.7-1.9,2S57,47.6,58.3,47.6z"/>
	<path class="st0" d="M64.6,44.3c0-1.1,0.7-1.5,2.2-1.5c1.4,0,2.2,0.5,2.2,1.8h-0.7c0-1-0.7-1.1-1.5-1.1c-1.1,0-1.5,0.2-1.5,0.8
		s0.5,0.7,1.5,0.9c1.4,0.2,2.2,0.6,2.2,1.6c0,1.1-0.7,1.5-2.3,1.5c-1.4,0-2.2-0.5-2.2-1.8h0.7c0,1,0.8,1.1,1.6,1.1
		c1,0,1.5-0.2,1.5-0.8c0-0.8-1-0.8-1.6-0.9C65.5,45.7,64.6,45.4,64.6,44.3z"/>
	<path class="st0" d="M77.9,42.9H82v0.7h-3.3v1.6h3v0.7h-3v1.6H82v0.7h-4.1V42.9z"/>
	<path class="st0" d="M85.7,42.9h0.7l3,4.1v-4.1h0.7v5.3h-0.7l-3-4.1v4.1h-0.7V42.9z"/>
	<path class="st0" d="M100.6,43.6h-1.7v-0.7h4.2v0.7h-1.7v4.6h-0.7L100.6,43.6L100.6,43.6z"/>
	<path class="st0" d="M106.7,42.9h4.1v0.7h-3.3v1.6h3v0.7h-3v1.6h3.4v0.7h-4.1V42.9z"/>
	<path class="st0" d="M114.4,45.6c0-1.8,0.8-2.8,2.6-2.8c1.6,0,2.5,0.5,2.5,1.9h-0.7c0-1.1-1-1.3-1.8-1.3c-1.3,0-1.8,0.6-1.8,2
		c0,1.5,0.7,2.1,2,2.1c0.8,0,1.6-0.1,1.6-1.2h0.7c0,1.4-0.9,1.9-2.4,1.9C115.3,48.3,114.4,47.4,114.4,45.6z"/>
	<path class="st0" d="M123.2,42.9h0.7l3,4.1v-4.1h0.7v5.3h-0.7l-3-4.1v4.1h-0.7V42.9z"/>
	<path class="st0" d="M134,42.8c1.8,0,2.7,0.9,2.7,2.8c0,1.8-0.9,2.8-2.7,2.8s-2.7-0.9-2.7-2.8C131.4,43.8,132.2,42.8,134,42.8z
		 M134,47.6c1.3,0,1.9-0.7,1.9-2s-0.6-2-1.9-2c-1.3,0-1.9,0.7-1.9,2S132.7,47.6,134,47.6z"/>
	<path class="st0" d="M140.4,42.9h0.7v4.6h3.3v0.7h-4V42.9z"/>
	<path class="st0" d="M150.4,42.8c1.8,0,2.7,0.9,2.7,2.8c0,1.8-0.9,2.8-2.7,2.8c-1.8,0-2.7-0.9-2.7-2.8S148.6,42.8,150.4,42.8z
		 M150.4,47.6c1.3,0,1.9-0.7,1.9-2s-0.6-2-1.9-2c-1.3,0-1.9,0.7-1.9,2S149.1,47.6,150.4,47.6z"/>
	<path class="st0" d="M156.6,45.6c0-1.8,0.8-2.8,2.6-2.8c1.6,0,2.5,0.5,2.5,1.9H161c0-1.1-1-1.3-1.8-1.3c-1.3,0-1.8,0.6-1.8,2
		c0,1.5,0.7,2.1,1.8,2.1c0.8,0,1.3-0.7,1.7-1.5h-1.6v-0.6h2.5v2.7h-0.7v-1.4c-0.4,0.8-1.1,1.5-2,1.5
		C157.5,48.3,156.6,47.4,156.6,45.6z"/>
	<path class="st0" d="M166.2,40.7l0.4,0.3l-1.1,1.4l-0.3-0.2L166.2,40.7z M165.6,42.9h0.7v5.3h-0.7V42.9z"/>
	<path class="st0" d="M172,42.9h0.8l2.2,5.3h-0.7l-0.4-1H171l-0.4,1h-0.8L172,42.9z M173.5,46.6l-1.1-2.7l-1.1,2.7H173.5z"/>
</g>
</svg>
