<?xml version="1.0" encoding="utf-8"?>
<!-- Generator: Adobe Illustrator 28.3.0, SVG Export Plug-In . SVG Version: 6.00 Build 0)  -->
<svg version="1.1" id="Layer_1" xmlns="http://www.w3.org/2000/svg" xmlns:xlink="http://www.w3.org/1999/xlink" x="0px" y="0px"
	 viewBox="0 0 120 120" style="enable-background:new 0 0 120 120;" xml:space="preserve">
<style type="text/css">
	.st0{fill:#EFEDEF;}
	.st1{fill:#A24689;}
</style>
<path class="st0" d="M5.9,58.4C6.9,35.3,17.6,18.6,38.5,8.5c7.1-3.4,14.7-5.2,22.5-5.3c8-0.2,15.7,1.6,22.9,5.3
	c15.5,7.8,26,19.9,30.2,36.7c5.1,20.5-0.5,38.5-15.5,53.3c-8.6,8.4-19.1,13.3-31.1,14.5c-17.9,1.9-33.5-3.2-46.2-16.1
	C13,88.4,8.1,78.2,6.6,66.4C6.3,63.8,6.1,61.2,5.9,58.4z M93.8,59.1c-0.1-16.5-12.4-32.9-32.7-33.5C43.1,25,28.1,40,28,58.3
	c-0.1,17.4,13.8,33.2,32.4,33.5C78.3,92.2,93.6,77.2,93.8,59.1z"/>
<path class="st1" d="M15,58.4c0.8-19.3,9.8-33.2,27.2-41.6c5.9-2.9,12.2-4.3,18.8-4.4c6.7-0.2,13.1,1.4,19.1,4.4
	c12.9,6.5,21.7,16.6,25.2,30.6c4.2,17.1-0.4,32.1-13,44.4c-7.2,7-15.9,11.1-25.9,12.1c-14.9,1.6-28-2.7-38.5-13.4
	c-6.9-7-11-15.6-12.2-25.4C15.4,62.9,15.2,60.7,15,58.4z M88.4,59c-0.1-13.7-10.3-27.4-27.3-28c-15-0.5-27.5,12-27.6,27.3
	c-0.1,14.5,11.5,27.7,27,28C75.5,86.5,88.2,74,88.4,59z"/>
</svg>
