<?xml version="1.0" encoding="UTF-8"?>
<svg id="Capa_1" xmlns="http://www.w3.org/2000/svg" version="1.1" viewBox="0 0 360 81.02">
  <!-- Generator: Adobe Illustrator 30.2.1, SVG Export Plug-In . SVG Version: 2.1.1 Build 1)  -->
  <defs>
    <style>
      .st0 {
        fill: #0087ff;
      }

      .st1 {
        fill: #f0f0f0;
      }

      .st2 {
        fill: #00204e;
      }
    </style>
  </defs>
  <g id="Capa_11" data-name="Capa_1">
    <g>
      <path class="st0" d="M22.2,64.27V18.62h14.42v45.64h-14.42ZM22.2,18.62h40.35v12.96H22.2v-12.96Z"/>
      <path class="st0" d="M114.34,45.55h-13.69v-6.85c0-1.58-.24-3-.73-4.25-.49-1.25-1.14-2.27-1.96-3.06-.82-.79-1.84-1.38-3.06-1.78-1.22-.4-2.56-.59-4.02-.59s-2.71.26-3.93.78-2.27,1.29-3.15,2.33c-.88,1.03-1.57,2.33-2.05,3.88-.49,1.55-.73,3.36-.73,5.43,0,2.31.24,4.26.73,5.84.49,1.58,1.19,2.86,2.1,3.83.91.97,2.04,1.67,3.38,2.1s2.86.64,4.57.64c1.34,0,2.57-.14,3.7-.41s2.08-.64,2.88-1.1c.79-.46,1.42-1,1.87-1.64s.68-1.29.68-1.96h12.87c0,5.05-1.87,9.13-5.61,12.23s-9.21,4.65-16.39,4.65c-8.64,0-15.08-2.04-19.31-6.12-4.23-4.08-6.34-10.1-6.34-18.08s2.05-13.77,6.16-17.94,10.06-6.25,17.85-6.25c8.64,0,14.83,2.19,18.58,6.57s5.61,11.02,5.61,19.9v1.85h-.01ZM72.26,35.69h37.88v9.86h-37.88v-9.86Z"/>
      <path class="st0" d="M120.61,64.27V18.62h14.42v45.64h-14.42ZM153.84,64.27v-23.37c0-1.7-.14-3.18-.41-4.43s-.75-2.31-1.42-3.19c-.67-.88-1.58-1.55-2.74-2.01-1.16-.46-2.65-.69-4.47-.69-3.17,0-5.58.9-7.26,2.69-1.67,1.8-2.51,4.52-2.51,8.17v1.28h-4.02v-1.28c0-3.53.36-6.79,1.09-9.77s1.84-5.54,3.33-7.67,3.41-3.79,5.75-4.97c2.34-1.19,5.1-1.78,8.26-1.78s5.73.35,8.08,1.05c2.34.7,4.32,1.9,5.93,3.61,1.61,1.7,2.82,3.97,3.61,6.8.79,2.83,1.19,6.38,1.19,10.64v24.92s-14.41,0-14.41,0Z"/>
      <path class="st2" d="M221,26.56s0,.01,0,.02h0s-.02-.02-.02-.02Z"/>
      <path class="st1" d="M222.02,33.05v31.22h-14.42v-21.16l-17.16,21.16h-18.53l26.46-32.68h-21.08v-12.96h31.77c5.37,0,9.98,3.27,11.94,7.93,0,0,0,.01,0,.02.65,1.54,1.01,3.23,1.01,5.01,0,0,0,.97,0,1.46Z"/>
      <path class="st0" d="M263.24,18.76c2.77,1,5.1,2.41,6.98,4.2,1.89,1.8,3.32,3.88,4.29,6.25s1.46,4.93,1.46,7.67h-12.96c0-.97-.21-1.86-.64-2.65-.43-.79-1.06-1.45-1.92-1.96-.85-.52-1.84-.93-2.97-1.23s-2.42-.46-3.88-.46-2.92.18-4.2.55c-1.28.37-2.37.97-3.29,1.83-.91.85-1.63,1.96-2.14,3.33-.52,1.37-.78,3.06-.78,5.07s.27,3.73.82,5.16,1.34,2.57,2.37,3.42c1.03.85,2.25,1.46,3.65,1.83,1.4.37,2.92.55,4.56.55,1.46,0,2.75-.15,3.88-.46,1.13-.3,2.05-.71,2.79-1.23.73-.52,1.29-1.17,1.69-1.96s.59-1.67.59-2.65h12.87c0,2.74-.46,5.3-1.37,7.67s-2.3,4.46-4.15,6.25c-1.86,1.8-4.2,3.2-7.03,4.2-2.83,1-6.16,1.51-10,1.51-8.4,0-14.76-2.04-19.08-6.12s-6.48-10.1-6.48-18.08,2.01-14.07,6.02-18.12c4.02-4.05,10.47-6.07,19.35-6.07,3.62-.01,6.8.5,9.57,1.5Z"/>
      <path class="st0" d="M328.44,45.55h-13.69v-6.85c0-1.58-.24-3-.73-4.25-.49-1.25-1.14-2.27-1.96-3.06-.82-.79-1.84-1.38-3.06-1.78-1.22-.4-2.56-.59-4.02-.59s-2.71.26-3.93.78-2.27,1.29-3.15,2.33c-.88,1.03-1.57,2.33-2.05,3.88-.49,1.55-.73,3.36-.73,5.43,0,2.31.24,4.26.73,5.84.49,1.58,1.19,2.86,2.1,3.83.91.97,2.04,1.67,3.38,2.1s2.86.64,4.57.64c1.34,0,2.57-.14,3.7-.41s2.08-.64,2.88-1.1c.79-.46,1.42-1,1.87-1.64s.68-1.29.68-1.96h12.87c0,5.05-1.87,9.13-5.61,12.23s-9.21,4.65-16.39,4.65c-8.64,0-15.08-2.04-19.31-6.12s-6.34-10.1-6.34-18.08,2.05-13.77,6.16-17.94c4.11-4.17,10.06-6.25,17.85-6.25,8.64,0,14.83,2.19,18.58,6.57s5.61,11.02,5.61,19.9v1.85h-.01ZM286.35,35.69h37.88v9.86h-37.88v-9.86Z"/>
    </g>
  </g>
</svg>