<?xml version="1.0" encoding="utf-8"?>
<!-- Generator: Adobe Illustrator 28.3.0, SVG Export Plug-In . SVG Version: 6.00 Build 0)  -->
<svg version="1.1" xmlns="http://www.w3.org/2000/svg" xmlns:xlink="http://www.w3.org/1999/xlink" x="0px" y="0px"
	 viewBox="0 0 360 81.02" style="enable-background:new 0 0 360 81.02;" xml:space="preserve">
<style type="text/css">
	.st0{fill:#0087FF;}
	.st1{fill:#00204E;}
</style>
<g id="Capa_1">
	<g>
		<path class="st0" d="M22.2,64.27V18.62h14.42v45.64H22.2z M22.2,18.62h40.35v12.96H22.2V18.62z"/>
		<path class="st0" d="M114.34,45.55h-13.69v-6.85c0-1.58-0.24-3-0.73-4.25c-0.49-1.25-1.14-2.27-1.96-3.06
			c-0.82-0.79-1.84-1.38-3.06-1.78c-1.22-0.4-2.56-0.59-4.02-0.59c-1.4,0-2.71,0.26-3.93,0.78c-1.22,0.52-2.27,1.29-3.15,2.33
			c-0.88,1.03-1.57,2.33-2.05,3.88c-0.49,1.55-0.73,3.36-0.73,5.43c0,2.31,0.24,4.26,0.73,5.84c0.49,1.58,1.19,2.86,2.1,3.83
			c0.91,0.97,2.04,1.67,3.38,2.1c1.34,0.43,2.86,0.64,4.57,0.64c1.34,0,2.57-0.14,3.7-0.41c1.13-0.27,2.08-0.64,2.88-1.1
			c0.79-0.46,1.42-1,1.87-1.64s0.68-1.29,0.68-1.96h12.87c0,5.05-1.87,9.13-5.61,12.23c-3.74,3.1-9.21,4.65-16.39,4.65
			c-8.64,0-15.08-2.04-19.31-6.12c-4.23-4.08-6.34-10.1-6.34-18.08c0-7.79,2.05-13.77,6.16-17.94c4.11-4.17,10.06-6.25,17.85-6.25
			c8.64,0,14.83,2.19,18.58,6.57s5.61,11.02,5.61,19.9V45.55z M72.26,35.69h37.88v9.86H72.26V35.69z"/>
		<path class="st0" d="M120.61,64.27V18.62h14.42v45.64H120.61z M153.84,64.27V40.9c0-1.7-0.14-3.18-0.41-4.43
			c-0.27-1.25-0.75-2.31-1.42-3.19c-0.67-0.88-1.58-1.55-2.74-2.01c-1.16-0.46-2.65-0.69-4.47-0.69c-3.17,0-5.58,0.9-7.26,2.69
			c-1.67,1.8-2.51,4.52-2.51,8.17v1.28h-4.02v-1.28c0-3.53,0.36-6.79,1.09-9.77c0.73-2.98,1.84-5.54,3.33-7.67
			c1.49-2.13,3.41-3.79,5.75-4.97c2.34-1.19,5.1-1.78,8.26-1.78c3.04,0,5.73,0.35,8.08,1.05c2.34,0.7,4.32,1.9,5.93,3.61
			c1.61,1.7,2.82,3.97,3.61,6.8c0.79,2.83,1.19,6.38,1.19,10.64v24.92H153.84z"/>
		<path class="st1" d="M221,26.56c0,0,0.01,0.01,0.01,0.02l0.01-0.01L221,26.56z"/>
		<path class="st1" d="M222.02,33.05v31.22H207.6V43.11l-17.16,21.16h-18.53l26.46-32.68h-21.08V18.63h31.77
			c5.37,0,9.98,3.27,11.94,7.93c0,0,0.01,0.01,0.01,0.02c0.65,1.54,1.01,3.23,1.01,5.01C222.02,31.59,222.02,32.56,222.02,33.05z"/>
		<path class="st0" d="M263.24,18.76c2.77,1,5.1,2.41,6.98,4.2c1.89,1.8,3.32,3.88,4.29,6.25c0.97,2.37,1.46,4.93,1.46,7.67h-12.96
			c0-0.97-0.21-1.86-0.64-2.65c-0.43-0.79-1.06-1.45-1.92-1.96c-0.85-0.52-1.84-0.93-2.97-1.23c-1.13-0.3-2.42-0.46-3.88-0.46
			c-1.52,0-2.92,0.18-4.2,0.55c-1.28,0.37-2.37,0.97-3.29,1.83c-0.91,0.85-1.63,1.96-2.14,3.33c-0.52,1.37-0.78,3.06-0.78,5.07
			s0.27,3.73,0.82,5.16c0.55,1.43,1.34,2.57,2.37,3.42c1.03,0.85,2.25,1.46,3.65,1.83c1.4,0.37,2.92,0.55,4.56,0.55
			c1.46,0,2.75-0.15,3.88-0.46c1.13-0.3,2.05-0.71,2.79-1.23c0.73-0.52,1.29-1.17,1.69-1.96c0.4-0.79,0.59-1.67,0.59-2.65h12.87
			c0,2.74-0.46,5.3-1.37,7.67c-0.91,2.37-2.3,4.46-4.15,6.25c-1.86,1.8-4.2,3.2-7.03,4.2c-2.83,1-6.16,1.51-10,1.51
			c-8.4,0-14.76-2.04-19.08-6.12c-4.32-4.08-6.48-10.1-6.48-18.08c0-8.03,2.01-14.07,6.02-18.12c4.02-4.05,10.47-6.07,19.35-6.07
			C257.29,17.25,260.47,17.76,263.24,18.76z"/>
		<path class="st0" d="M328.44,45.55h-13.69v-6.85c0-1.58-0.24-3-0.73-4.25c-0.49-1.25-1.14-2.27-1.96-3.06
			c-0.82-0.79-1.84-1.38-3.06-1.78c-1.22-0.4-2.56-0.59-4.02-0.59c-1.4,0-2.71,0.26-3.93,0.78c-1.22,0.52-2.27,1.29-3.15,2.33
			c-0.88,1.03-1.57,2.33-2.05,3.88c-0.49,1.55-0.73,3.36-0.73,5.43c0,2.31,0.24,4.26,0.73,5.84c0.49,1.58,1.19,2.86,2.1,3.83
			c0.91,0.97,2.04,1.67,3.38,2.1c1.34,0.43,2.86,0.64,4.57,0.64c1.34,0,2.57-0.14,3.7-0.41c1.13-0.27,2.08-0.64,2.88-1.1
			c0.79-0.46,1.42-1,1.87-1.64s0.68-1.29,0.68-1.96h12.87c0,5.05-1.87,9.13-5.61,12.23c-3.74,3.1-9.21,4.65-16.39,4.65
			c-8.64,0-15.08-2.04-19.31-6.12c-4.23-4.08-6.34-10.1-6.34-18.08c0-7.79,2.05-13.77,6.16-17.94c4.11-4.17,10.06-6.25,17.85-6.25
			c8.64,0,14.83,2.19,18.58,6.57s5.61,11.02,5.61,19.9V45.55z M286.35,35.69h37.88v9.86h-37.88V35.69z"/>
	</g>
</g>
<g id="Modo_de_aislamiento">
</g>
</svg>
